<?xml version="1.0" encoding="UTF-8" standalone="no"?><svg xmlns="http://www.w3.org/2000/svg" xmlns:xlink="http://www.w3.org/1999/xlink" clip-rule="evenodd" stroke-miterlimit="4.00" viewBox="0 0 1920 1080"><desc>SVG generated by Keynote</desc><defs><pattern id="02162210-F477-4635-91F2-2E3DBB311716" patternUnits="userSpaceOnUse" width="357" height="357" viewBox="0 0 357 357" patternTransform="matrix(0.840336, 0.000000, 0.000000, -0.840336, 1048.196000, 457.332000)"><image xlink:href="../../BB29A6E3-44EF-40C3-941B-4C0A523468B2/assets/EB5C0A8F339E186103AA07E364F02A63.jpeg" width="357.00" height="357.00"></image></pattern><pattern id="C17EE424-28CD-4794-849B-867FA819512C" patternUnits="userSpaceOnUse" width="357" height="357" viewBox="0 0 357 357" patternTransform="matrix(0.840336, 0.000000, 0.000000, -0.840336, 449.683500, 791.881000)"><image xlink:href="../../BB29A6E3-44EF-40C3-941B-4C0A523468B2/assets/EB5C0A8F339E186103AA07E364F02A63.jpeg" width="357.00" height="357.00"></image></pattern></defs><g transform="matrix(1.00, 0.00, -0.00, -1.00, 0.0, 1080.0)"><path d="M 0.0 1080.0 L 1920.0 1080.0 L 1920.0 0.0 L 0.0 0.0 Z M 0.0 1080.0 " fill="#FEFFFF"></path><text xml:space="preserve" font-family="MarkerFelt-Thin" font-size="112.0" fill="#000000" transform="matrix(1.00, 0.00, -0.00, -1.00, 750.0, 878.0)">A</text><text xml:space="preserve" font-family="MarkerFelt-Thin" font-size="112.0" fill="#000000" transform="matrix(1.00, 0.00, -0.00, -1.00, 819.4, 878.0)">p</text><text xml:space="preserve" font-family="MarkerFelt-Thin" font-size="112.0" fill="#000000" transform="matrix(1.00, 0.00, -0.00, -1.00, 867.6, 878.0)">p</text><text xml:space="preserve" font-family="MarkerFelt-Thin" font-size="112.0" fill="#000000" transform="matrix(1.00, 0.00, -0.00, -1.00, 919.5, 878.0)">r</text><text xml:space="preserve" font-family="MarkerFelt-Thin" font-size="112.0" fill="#000000" transform="matrix(1.00, 0.00, -0.00, -1.00, 964.9, 878.0)">o</text><text xml:space="preserve" font-family="MarkerFelt-Thin" font-size="112.0" fill="#000000" transform="matrix(1.00, 0.00, -0.00, -1.00, 1016.7, 878.0)">a</text><text xml:space="preserve" font-family="MarkerFelt-Thin" font-size="112.0" fill="#000000" transform="matrix(1.00, 0.00, -0.00, -1.00, 1071.1, 878.0)">c</text><text xml:space="preserve" font-family="MarkerFelt-Thin" font-size="112.0" fill="#000000" transform="matrix(1.00, 0.00, -0.00, -1.00, 1117.0, 878.0)">h</text><g><clipPath id="clip-12"><path d="M 474.4 351.3 L 736.7 351.3 L 736.7 459.3 L 474.4 459.3 Z M 474.4 351.3 "></path></clipPath><g clip-path="url(#clip-12)"><image xlink:href="../../BB29A6E3-44EF-40C3-941B-4C0A523468B2/assets/D45D567B38F9ED3D2D89770BA0FD6F97.png" width="260.00" height="106.00" transform="matrix(1.00, 0.00, -0.00, -1.00, 475.4, 458.3)" opacity="0.50"></image></g></g><g><clipPath id="clip-13"><path d="M 501.4 457.3 L 709.8 457.3 C 716.4 457.3 719.7 457.3 723.3 456.2 C 727.1 454.8 730.2 451.7 731.6 447.9 C 732.7 444.3 732.7 441.0 732.7 434.3 L 732.7 380.3 C 732.7 373.7 732.7 370.4 731.6 366.8 C 730.2 362.9 727.1 359.9 723.3 358.5 C 719.7 357.3 716.4 357.3 709.7 357.3 L 501.4 357.3 C 494.8 357.3 491.5 357.3 487.9 358.5 C 484.0 359.9 481.0 362.9 479.6 366.8 C 478.4 370.4 478.4 373.7 478.4 380.4 L 478.4 434.4 C 478.4 441.0 478.4 444.3 479.6 447.9 C 481.0 451.7 484.0 454.8 487.9 456.2 C 491.5 457.3 494.8 457.3 501.5 457.3 Z M 501.4 457.3 "></path></clipPath><g clip-path="url(#clip-13)"><g><clipPath id="clip-14"><path d="M 474.4 351.3 L 736.7 351.3 L 736.7 459.3 L 474.4 459.3 Z M 474.4 351.3 "></path></clipPath><g clip-path="url(#clip-14)"><image xlink:href="../../BB29A6E3-44EF-40C3-941B-4C0A523468B2/assets/EB5C0A8F339E186103AA07E364F02A63.jpeg" width="357.00" height="357.00" transform="matrix(0.84, 0.00, -0.00, -0.84, 478.4, 457.3)"></image><path d="M 478.4 457.3 L 732.7 457.3 L 732.7 357.3 L 478.4 357.3 Z M 478.4 457.3 " fill="#009BFC" fill-opacity="0.50"></path></g></g></g></g><g><clipPath id="clip-15"><path d="M 507.4 367.6 L 712.4 367.6 L 712.4 448.7 L 507.4 448.7 Z M 507.4 367.6 "></path></clipPath><g clip-path="url(#clip-15)"><text xml:space="preserve" font-family="MarkerFelt-Thin" font-size="50.0" fill="#FEFFFF" transform="matrix(1.00, 0.00, -0.00, -1.00, 521.0, 392.0)">C</text><text xml:space="preserve" font-family="MarkerFelt-Thin" font-size="50.0" fill="#FEFFFF" transform="matrix(1.00, 0.00, -0.00, -1.00, 545.6, 392.0)">l</text><text xml:space="preserve" font-family="MarkerFelt-Thin" font-size="50.0" fill="#FEFFFF" transform="matrix(1.00, 0.00, -0.00, -1.00, 558.0, 392.0)">a</text><text xml:space="preserve" font-family="MarkerFelt-Thin" font-size="50.0" fill="#FEFFFF" transform="matrix(1.00, 0.00, -0.00, -1.00, 582.6, 392.0)">s</text><text xml:space="preserve" font-family="MarkerFelt-Thin" font-size="50.0" fill="#FEFFFF" transform="matrix(1.00, 0.00, -0.00, -1.00, 603.8, 392.0)">s</text><text xml:space="preserve" font-family="MarkerFelt-Thin" font-size="50.0" fill="#FEFFFF" transform="matrix(1.00, 0.00, -0.00, -1.00, 624.4, 392.0)">i</text><text xml:space="preserve" font-family="MarkerFelt-Thin" font-size="50.0" fill="#FEFFFF" transform="matrix(1.00, 0.00, -0.00, -1.00, 634.4, 392.0)">ﬁ</text><text xml:space="preserve" font-family="MarkerFelt-Thin" font-size="50.0" fill="#FEFFFF" transform="matrix(1.00, 0.00, -0.00, -1.00, 656.9, 392.0)">e</text><text xml:space="preserve" font-family="MarkerFelt-Thin" font-size="50.0" fill="#FEFFFF" transform="matrix(1.00, 0.00, -0.00, -1.00, 678.9, 392.0)">r</text></g></g><g><clipPath id="clip-16"><path d="M 1044.2 351.3 L 1408.7 351.3 L 1408.7 459.3 L 1044.2 459.3 Z M 1044.2 351.3 "></path></clipPath><g clip-path="url(#clip-16)"><image xlink:href="../../BB29A6E3-44EF-40C3-941B-4C0A523468B2/assets/09ADE4EC35716B39E7AE0584293499CB.png" width="363.00" height="106.00" transform="matrix(1.00, 0.00, -0.00, -1.00, 1045.2, 458.3)" opacity="0.50"></image></g></g><g><clipPath id="clip-17"><path d="M 1071.1 457.3 L 1381.8 457.3 C 1388.4 457.3 1391.7 457.3 1395.2 456.2 C 1399.1 454.8 1402.2 451.7 1403.6 447.9 C 1404.7 444.3 1404.7 441.0 1404.7 434.3 L 1404.7 380.3 C 1404.7 373.7 1404.7 370.4 1403.6 366.8 C 1402.2 362.9 1399.1 359.9 1395.2 358.5 C 1391.7 357.3 1388.4 357.3 1381.7 357.3 L 1071.1 357.3 C 1064.6 357.3 1061.2 357.3 1057.7 358.5 C 1053.8 359.9 1050.7 362.9 1049.3 366.8 C 1048.2 370.4 1048.2 373.7 1048.2 380.4 L 1048.2 434.4 C 1048.2 441.0 1048.2 444.3 1049.3 447.9 C 1050.7 451.7 1053.8 454.8 1057.7 456.2 C 1061.2 457.3 1064.6 457.3 1071.2 457.3 Z M 1071.1 457.3 "></path></clipPath><g clip-path="url(#clip-17)"><g><clipPath id="clip-18"><path d="M 1044.2 351.3 L 1408.7 351.3 L 1408.7 459.3 L 1044.2 459.3 Z M 1044.2 351.3 "></path></clipPath><g clip-path="url(#clip-18)"><path d="M 1048.2 357.3 L 1404.7 357.3 L 1404.7 457.3 L 1048.2 457.3 Z M 1048.2 357.3 " fill="url(#02162210-F477-4635-91F2-2E3DBB311716)"></path><path d="M 1048.2 457.3 L 1404.7 457.3 L 1404.7 357.3 L 1048.2 357.3 Z M 1048.2 457.3 " fill="#009BFC" fill-opacity="0.50"></path></g></g></g></g><g><clipPath id="clip-19"><path d="M 1085.1 367.6 L 1367.9 367.6 L 1367.9 448.7 L 1085.1 448.7 Z M 1085.1 367.6 "></path></clipPath><g clip-path="url(#clip-19)"><text xml:space="preserve" font-family="MarkerFelt-Thin" font-size="50.0" fill="#FEFFFF" transform="matrix(1.00, 0.00, -0.00, -1.00, 1099.0, 392.0)">L</text><text xml:space="preserve" font-family="MarkerFelt-Thin" font-size="50.0" fill="#FEFFFF" transform="matrix(1.00, 0.00, -0.00, -1.00, 1123.0, 392.0)">a</text><text xml:space="preserve" font-family="MarkerFelt-Thin" font-size="50.0" fill="#FEFFFF" transform="matrix(1.00, 0.00, -0.00, -1.00, 1148.2, 392.0)">b</text><text xml:space="preserve" font-family="MarkerFelt-Thin" font-size="50.0" fill="#FEFFFF" transform="matrix(1.00, 0.00, -0.00, -1.00, 1171.5, 392.0)">e</text><text xml:space="preserve" font-family="MarkerFelt-Thin" font-size="50.0" fill="#FEFFFF" transform="matrix(1.00, 0.00, -0.00, -1.00, 1193.7, 392.0)">l</text><text xml:space="preserve" font-family="MarkerFelt-Thin" font-size="50.0" fill="#FEFFFF" transform="matrix(1.00, 0.00, -0.00, -1.00, 1205.0, 392.0)">e</text><text xml:space="preserve" font-family="MarkerFelt-Thin" font-size="50.0" fill="#FEFFFF" transform="matrix(1.00, 0.00, -0.00, -1.00, 1227.1, 392.0)">d</text><text xml:space="preserve" font-family="MarkerFelt-Thin" font-size="50.0" fill="#FEFFFF" transform="matrix(1.00, 0.00, -0.00, -1.00, 1248.6, 392.0)"> </text><text xml:space="preserve" font-family="MarkerFelt-Thin" font-size="50.0" fill="#FEFFFF" transform="matrix(1.00, 0.00, -0.00, -1.00, 1261.1, 392.0)">D</text><text xml:space="preserve" font-family="MarkerFelt-Thin" font-size="50.0" fill="#FEFFFF" transform="matrix(1.00, 0.00, -0.00, -1.00, 1285.6, 392.0)">a</text><text xml:space="preserve" font-family="MarkerFelt-Thin" font-size="50.0" fill="#FEFFFF" transform="matrix(1.00, 0.00, -0.00, -1.00, 1310.0, 392.0)">t</text><text xml:space="preserve" font-family="MarkerFelt-Thin" font-size="50.0" fill="#FEFFFF" transform="matrix(1.00, 0.00, -0.00, -1.00, 1330.7, 392.0)">a</text></g></g><path d="M 17.7 16.4 L 20.2 18.8 C 198.2 178.2 368.1 171.9 529.7 0.0 " fill="none" stroke="#000000" stroke-width="7.00" transform="matrix(1.00, 0.00, 0.00, -1.00, 653.6, 357.3)"></path><path d="M 683.2 348.7 L 653.6 357.3 L 664.4 328.4 Z M 683.2 348.7 " fill="#000000"></path><path d="M 0.0 0.0 C 97.4 0.0 194.7 0.0 292.1 0.0 L 296.1 0.0 " fill="none" stroke="#000000" stroke-width="8.00" transform="matrix(1.00, 0.00, 0.00, -1.00, 732.7, 407.3)"></path><path d="M 1017.0 391.7 L 1048.2 407.3 L 1017.0 422.9 L 1024.8 407.3 Z M 1017.0 391.7 " fill="#000000"></path><text xml:space="preserve" font-family="MarkerFelt-Thin" font-size="50.0" fill="#000000" transform="matrix(1.00, 0.00, -0.00, -1.00, 756.0, 446.0)">i</text><text xml:space="preserve" font-family="MarkerFelt-Thin" font-size="50.0" fill="#000000" transform="matrix(1.00, 0.00, -0.00, -1.00, 768.4, 446.0)">n</text><text xml:space="preserve" font-family="MarkerFelt-Thin" font-size="50.0" fill="#000000" transform="matrix(1.00, 0.00, -0.00, -1.00, 795.4, 446.0)">v</text><text xml:space="preserve" font-family="MarkerFelt-Thin" font-size="50.0" fill="#000000" transform="matrix(1.00, 0.00, -0.00, -1.00, 818.5, 446.0)">e</text><text xml:space="preserve" font-family="MarkerFelt-Thin" font-size="50.0" fill="#000000" transform="matrix(1.00, 0.00, -0.00, -1.00, 841.3, 446.0)">s</text><text xml:space="preserve" font-family="MarkerFelt-Thin" font-size="50.0" fill="#000000" transform="matrix(1.00, 0.00, -0.00, -1.00, 863.0, 446.0)">t</text><text xml:space="preserve" font-family="MarkerFelt-Thin" font-size="50.0" fill="#000000" transform="matrix(1.00, 0.00, -0.00, -1.00, 884.4, 446.0)">i</text><text xml:space="preserve" font-family="MarkerFelt-Thin" font-size="50.0" fill="#000000" transform="matrix(1.00, 0.00, -0.00, -1.00, 895.7, 446.0)">g</text><text xml:space="preserve" font-family="MarkerFelt-Thin" font-size="50.0" fill="#000000" transform="matrix(1.00, 0.00, -0.00, -1.00, 919.3, 446.0)">a</text><text xml:space="preserve" font-family="MarkerFelt-Thin" font-size="50.0" fill="#000000" transform="matrix(1.00, 0.00, -0.00, -1.00, 943.8, 446.0)">t</text><text xml:space="preserve" font-family="MarkerFelt-Thin" font-size="50.0" fill="#000000" transform="matrix(1.00, 0.00, -0.00, -1.00, 965.2, 446.0)">i</text><text xml:space="preserve" font-family="MarkerFelt-Thin" font-size="50.0" fill="#000000" transform="matrix(1.00, 0.00, -0.00, -1.00, 976.8, 446.0)">o</text><text xml:space="preserve" font-family="MarkerFelt-Thin" font-size="50.0" fill="#000000" transform="matrix(1.00, 0.00, -0.00, -1.00, 999.5, 446.0)">n</text><text xml:space="preserve" font-family="MarkerFelt-Thin" font-size="50.0" fill="#000000" transform="matrix(1.00, 0.00, -0.00, -1.00, 854.0, 169.0)">r</text><text xml:space="preserve" font-family="MarkerFelt-Thin" font-size="50.0" fill="#000000" transform="matrix(1.00, 0.00, -0.00, -1.00, 873.0, 169.0)">e</text><text xml:space="preserve" font-family="MarkerFelt-Thin" font-size="50.0" fill="#000000" transform="matrix(1.00, 0.00, -0.00, -1.00, 896.1, 169.0)">t</text><text xml:space="preserve" font-family="MarkerFelt-Thin" font-size="50.0" fill="#000000" transform="matrix(1.00, 0.00, -0.00, -1.00, 917.9, 169.0)">r</text><text xml:space="preserve" font-family="MarkerFelt-Thin" font-size="50.0" fill="#000000" transform="matrix(1.00, 0.00, -0.00, -1.00, 938.4, 169.0)">a</text><text xml:space="preserve" font-family="MarkerFelt-Thin" font-size="50.0" fill="#000000" transform="matrix(1.00, 0.00, -0.00, -1.00, 963.3, 169.0)">i</text><text xml:space="preserve" font-family="MarkerFelt-Thin" font-size="50.0" fill="#000000" transform="matrix(1.00, 0.00, -0.00, -1.00, 975.7, 169.0)">n</text><image xlink:href="../../BB29A6E3-44EF-40C3-941B-4C0A523468B2/assets/F77C25A88B107E1B4C383EF49C45F920.png" width="439.00" height="187.00" transform="matrix(1.53, 0.00, -0.00, -1.53, 813.0, 833.0)"></image><image xlink:href="../../BB29A6E3-44EF-40C3-941B-4C0A523468B2/assets/CE471319C5E15AE41AC3F06742339908.png" width="705.00" height="330.00" transform="matrix(1.00, 0.00, -0.00, 1.00, 796.0, 514.0)"></image><g><clipPath id="clip-20"><path d="M 445.7 669.9 L 769.2 669.9 L 769.2 793.9 L 445.7 793.9 Z M 445.7 669.9 "></path></clipPath><g clip-path="url(#clip-20)"><image xlink:href="../../BB29A6E3-44EF-40C3-941B-4C0A523468B2/assets/D8058BF4FC2D4B8F73789D23C1F3772A.png" width="321.00" height="122.00" transform="matrix(1.00, 0.00, -0.00, -1.00, 446.7, 792.9)" opacity="0.50"></image></g></g><g><clipPath id="clip-21"><path d="M 472.6 791.9 L 742.2 791.9 C 748.8 791.9 752.1 791.9 755.7 790.8 C 759.6 789.3 762.6 786.3 764.0 782.4 C 765.2 778.9 765.2 775.5 765.2 768.8 L 765.2 698.8 C 765.2 692.2 765.2 688.9 764.0 685.4 C 762.6 681.5 759.6 678.4 755.7 677.0 C 752.1 675.9 748.8 675.9 742.1 675.9 L 472.6 675.9 C 466.0 675.9 462.7 675.9 459.2 677.0 C 455.3 678.4 452.2 681.5 450.8 685.4 C 449.7 688.9 449.7 692.2 449.7 698.9 L 449.7 769.0 C 449.7 775.5 449.7 778.9 450.8 782.4 C 452.2 786.3 455.3 789.3 459.2 790.8 C 462.7 791.9 466.0 791.9 472.7 791.9 Z M 472.6 791.9 "></path></clipPath><g clip-path="url(#clip-21)"><g><clipPath id="clip-22"><path d="M 445.7 669.9 L 769.2 669.9 L 769.2 793.9 L 445.7 793.9 Z M 445.7 669.9 "></path></clipPath><g clip-path="url(#clip-22)"><path d="M 449.7 675.9 L 765.2 675.9 L 765.2 791.9 L 449.7 791.9 Z M 449.7 675.9 " fill="url(#C17EE424-28CD-4794-849B-867FA819512C)"></path><path d="M 449.7 791.9 L 765.2 791.9 L 765.2 675.9 L 449.7 675.9 Z M 449.7 791.9 " fill="#009BFC" fill-opacity="0.50"></path></g></g></g></g><g><clipPath id="clip-23"><path d="M 436.4 666.3 L 1059.6 666.3 L 1059.6 801.5 L 436.4 801.5 Z M 436.4 666.3 "></path></clipPath><g clip-path="url(#clip-23)"><text xml:space="preserve" font-family="MarkerFelt-Thin" font-size="50.0" fill="#FEFFFF" transform="matrix(1.00, 0.00, -0.00, -1.00, 463.0, 745.0)">“</text><text xml:space="preserve" font-family="MarkerFelt-Thin" font-size="50.0" fill="#FEFFFF" transform="matrix(1.00, 0.00, -0.00, -1.00, 484.6, 745.0)">L</text><text xml:space="preserve" font-family="MarkerFelt-Thin" font-size="50.0" fill="#FEFFFF" transform="matrix(1.00, 0.00, -0.00, -1.00, 507.7, 745.0)">o</text><text xml:space="preserve" font-family="MarkerFelt-Thin" font-size="50.0" fill="#FEFFFF" transform="matrix(1.00, 0.00, -0.00, -1.00, 531.2, 745.0)">w</text><text xml:space="preserve" font-family="MarkerFelt-Thin" font-size="50.0" fill="#FEFFFF" transform="matrix(1.00, 0.00, -0.00, -1.00, 567.2, 745.0)"> </text><text xml:space="preserve" font-family="MarkerFelt-Thin" font-size="50.0" fill="#FEFFFF" transform="matrix(1.00, 0.00, -0.00, -1.00, 579.7, 745.0)">h</text><text xml:space="preserve" font-family="MarkerFelt-Thin" font-size="50.0" fill="#FEFFFF" transform="matrix(1.00, 0.00, -0.00, -1.00, 606.1, 745.0)">a</text><text xml:space="preserve" font-family="MarkerFelt-Thin" font-size="50.0" fill="#FEFFFF" transform="matrix(1.00, 0.00, -0.00, -1.00, 631.1, 745.0)">n</text><text xml:space="preserve" font-family="MarkerFelt-Thin" font-size="50.0" fill="#FEFFFF" transform="matrix(1.00, 0.00, -0.00, -1.00, 657.1, 745.0)">g</text><text xml:space="preserve" font-family="MarkerFelt-Thin" font-size="50.0" fill="#FEFFFF" transform="matrix(1.00, 0.00, -0.00, -1.00, 679.8, 745.0)">i</text><text xml:space="preserve" font-family="MarkerFelt-Thin" font-size="50.0" fill="#FEFFFF" transform="matrix(1.00, 0.00, -0.00, -1.00, 692.1, 745.0)">n</text><text xml:space="preserve" font-family="MarkerFelt-Thin" font-size="50.0" fill="#FEFFFF" transform="matrix(1.00, 0.00, -0.00, -1.00, 718.1, 745.0)">g</text><text xml:space="preserve" font-family="MarkerFelt-Thin" font-size="50.0" fill="#FEFFFF" transform="matrix(1.00, 0.00, -0.00, -1.00, 739.1, 745.0)"> </text><text xml:space="preserve" font-family="MarkerFelt-Thin" font-size="50.0" fill="#FEFFFF" transform="matrix(1.00, 0.00, -0.00, -1.00, 751.6, 745.0)"> </text><text xml:space="preserve" font-family="MarkerFelt-Thin" font-size="50.0" fill="#FEFFFF" transform="matrix(1.00, 0.00, -0.00, -1.00, 541.0, 691.0)">f</text><text xml:space="preserve" font-family="MarkerFelt-Thin" font-size="50.0" fill="#FEFFFF" transform="matrix(1.00, 0.00, -0.00, -1.00, 562.8, 691.0)">r</text><text xml:space="preserve" font-family="MarkerFelt-Thin" font-size="50.0" fill="#FEFFFF" transform="matrix(1.00, 0.00, -0.00, -1.00, 584.9, 691.0)">u</text><text xml:space="preserve" font-family="MarkerFelt-Thin" font-size="50.0" fill="#FEFFFF" transform="matrix(1.00, 0.00, -0.00, -1.00, 607.4, 691.0)">i</text><text xml:space="preserve" font-family="MarkerFelt-Thin" font-size="50.0" fill="#FEFFFF" transform="matrix(1.00, 0.00, -0.00, -1.00, 620.7, 691.0)">t</text><text xml:space="preserve" font-family="MarkerFelt-Thin" font-size="50.0" fill="#FEFFFF" transform="matrix(1.00, 0.00, -0.00, -1.00, 641.4, 691.0)">”</text></g></g><path d="M 0.0 194.4 L 0.0 190.9 C 0.0 127.3 0.0 63.6 0.0 0.0 " fill="none" stroke="#000000" stroke-width="7.00" stroke-dasharray="14.0, 14.0" transform="matrix(1.00, 0.00, 0.00, -1.00, 605.6, 675.9)"></path><path d="M 591.8 484.9 L 605.6 457.3 L 619.4 484.9 Z M 591.8 484.9 " fill="#000000"></path></g></svg>